<?xml version="1.0" encoding="UTF-8" standalone="no"?><!DOCTYPE svg PUBLIC "-//W3C//DTD SVG 1.1//EN" "http://www.w3.org/Graphics/SVG/1.1/DTD/svg11.dtd"><svg width="100%" height="100%" viewBox="0 0 2084 2084" version="1.1" xmlns="http://www.w3.org/2000/svg" xmlns:xlink="http://www.w3.org/1999/xlink" xml:space="preserve" xmlns:serif="http://www.serif.com/" style="fill-rule:evenodd;clip-rule:evenodd;stroke-linejoin:round;stroke-miterlimit:2;"><g id="Icon"><path id="Background" d="M979.547,248.348c-0.03,-0.793 -0.045,-1.592 -0.045,-2.395c-0,-34.31 27.855,-62.165 62.165,-62.165c34.31,0 62.165,27.855 62.165,62.165c-0,0.803 -0.015,1.602 -0.046,2.395c304.518,23.56 561.212,218.848 673.257,489.05c6.674,-2.449 13.878,-3.785 21.392,-3.785c34.31,-0 62.165,27.855 62.165,62.165c0,28.405 -19.092,52.386 -45.137,59.8c14.324,59.682 21.913,121.996 21.913,186.069c0,242.15 -108.404,459.182 -279.26,605.145c8.405,10.603 13.424,24.005 13.424,38.569c0,34.31 -27.855,62.165 -62.165,62.165c-21.533,0 -40.523,-10.971 -51.679,-27.623c-121.115,74.483 -263.595,117.438 -416.029,117.438c-152.434,0 -294.914,-42.955 -416.029,-117.438c-11.157,16.652 -30.147,27.623 -51.68,27.623c-34.31,0 -62.165,-27.855 -62.165,-62.165c-0,-14.564 5.019,-27.966 13.425,-38.569c-170.856,-145.963 -279.261,-362.995 -279.261,-605.145c0,-64.073 7.59,-126.387 21.914,-186.069c-26.045,-7.414 -45.138,-31.395 -45.138,-59.8c0,-34.31 27.855,-62.165 62.165,-62.165c7.514,-0 14.718,1.336 21.392,3.785c112.015,-270.174 368.707,-465.477 673.257,-489.05Z" style="fill:#1ed760;"/><path id="Rust-gear" serif:id="Rust gear" d="M1121.47,1983.2l-53.44,85.521c-5.673,9.08 -15.653,14.611 -26.359,14.611c-10.707,0 -20.686,-5.531 -26.36,-14.611l-53.439,-85.521c-8.551,-0.725 -17.092,-1.566 -25.62,-2.524l-69.097,73.453c-5.871,6.242 -14.07,9.785 -22.639,9.785c-12.89,0 -24.5,-8.017 -29.067,-20.07l-35.728,-94.304c-8.245,-2.379 -16.458,-4.87 -24.635,-7.473l-82.099,58.561c-5.268,3.758 -11.58,5.778 -18.05,5.778c-15.123,0 -28.16,-11.037 -30.656,-25.952l-16.645,-99.462c-7.622,-3.942 -15.191,-7.987 -22.703,-12.135l-91.947,41.419c-4.013,1.807 -8.364,2.742 -12.766,2.742c-17.051,0 -31.082,-14.031 -31.082,-31.082c-0,-0.317 0.005,-0.633 0.014,-0.95l3.08,-100.798c-6.707,-5.353 -13.341,-10.797 -19.9,-16.331l-98.26,22.685c-2.293,0.53 -4.639,0.797 -6.992,0.797c-17.051,-0 -31.083,-14.031 -31.083,-31.083c0,-2.353 0.268,-4.699 0.797,-6.991l22.685,-98.261c-5.534,-6.559 -10.978,-13.192 -16.331,-19.899l-100.798,3.079c-0.316,0.01 -0.633,0.015 -0.949,0.015c-17.052,-0 -31.083,-14.032 -31.083,-31.083c0,-4.401 0.935,-8.753 2.743,-12.766l41.419,-91.947c-4.148,-7.512 -8.194,-15.08 -12.136,-22.703l-99.461,-16.645c-14.916,-2.496 -25.953,-15.533 -25.953,-30.656c0,-6.47 2.021,-12.782 5.778,-18.05l58.561,-82.099c-2.603,-8.177 -5.094,-16.389 -7.473,-24.634l-94.303,-35.729c-12.054,-4.567 -20.071,-16.177 -20.071,-29.066c0,-8.57 3.544,-16.769 9.786,-22.64l73.452,-69.097c-0.957,-8.528 -1.799,-17.069 -2.523,-25.62l-85.522,-53.439c-9.079,-5.674 -14.611,-15.653 -14.611,-26.359c0,-10.707 5.532,-20.686 14.611,-26.36l85.522,-53.439c0.724,-8.551 1.566,-17.092 2.523,-25.62l-73.452,-69.097c-6.242,-5.871 -9.786,-14.07 -9.786,-22.639c0,-12.89 8.017,-24.5 20.071,-29.067l94.303,-35.729c2.379,-8.245 4.87,-16.457 7.473,-24.634l-58.561,-82.099c-3.757,-5.268 -5.778,-11.58 -5.778,-18.05c0,-15.123 11.037,-28.16 25.953,-30.656l99.461,-16.645c3.942,-7.622 7.988,-15.191 12.136,-22.703l-41.419,-91.947c-1.808,-4.013 -2.743,-8.364 -2.743,-12.766c0,-17.051 14.031,-31.082 31.083,-31.082c0.316,-0 0.633,0.005 0.949,0.014l100.798,3.08c5.353,-6.707 10.797,-13.341 16.331,-19.9l-22.685,-98.26c-0.529,-2.293 -0.797,-4.639 -0.797,-6.992c0,-17.052 14.031,-31.083 31.083,-31.083c2.353,0 4.699,0.267 6.992,0.797l98.26,22.685c6.559,-5.534 13.193,-10.978 19.9,-16.331l-3.08,-100.798c-0.009,-0.316 -0.014,-0.633 -0.014,-0.949c-0,-17.052 14.031,-31.083 31.082,-31.083c4.402,0 8.753,0.935 12.766,2.743l91.947,41.419c7.512,-4.148 15.081,-8.194 22.703,-12.136l16.645,-99.461c2.496,-14.916 15.533,-25.953 30.656,-25.953c6.47,0 12.782,2.021 18.05,5.778l82.099,58.561c8.177,-2.603 16.39,-5.094 24.635,-7.473l35.728,-94.304c4.567,-12.053 16.177,-20.07 29.067,-20.07c8.569,0 16.768,3.544 22.639,9.785l69.097,73.453c8.528,-0.958 17.069,-1.799 25.62,-2.523l53.439,-85.522c5.674,-9.079 15.653,-14.611 26.36,-14.611c10.706,0 20.686,5.532 26.359,14.611l53.44,85.522c8.551,0.724 17.091,1.565 25.619,2.523l69.097,-73.453c5.872,-6.241 14.071,-9.785 22.64,-9.785c12.889,0 24.5,8.017 29.066,20.07l35.729,94.304c8.245,2.379 16.457,4.87 24.634,7.473l82.1,-58.561c5.267,-3.757 11.579,-5.778 18.049,-5.778c15.123,0 28.161,11.037 30.657,25.953l16.644,99.461c7.622,3.942 15.191,7.988 22.703,12.136l91.947,-41.419c4.013,-1.808 8.365,-2.743 12.766,-2.743c17.051,0 31.083,14.031 31.083,31.083c-0,0.316 -0.005,0.633 -0.015,0.949l-3.08,100.798c6.708,5.353 13.342,10.797 19.9,16.331l98.26,-22.685c2.293,-0.53 4.639,-0.797 6.992,-0.797c17.052,0 31.083,14.031 31.083,31.083c0,2.353 -0.267,4.699 -0.797,6.992l-22.685,98.26c5.534,6.559 10.978,13.193 16.332,19.9l100.797,-3.08c0.317,-0.009 0.633,-0.014 0.95,-0.014c17.051,-0 31.082,14.031 31.082,31.082c0,4.402 -0.935,8.753 -2.743,12.766l-41.418,91.947c4.148,7.512 8.193,15.081 12.135,22.703l99.462,16.645c14.915,2.496 25.952,15.533 25.952,30.656c0,6.47 -2.02,12.782 -5.778,18.05l-58.561,82.099c2.603,8.177 5.094,16.389 7.473,24.634l94.304,35.729c12.053,4.567 20.07,16.177 20.07,29.067c0,8.569 -3.544,16.768 -9.785,22.639l-73.453,69.097c0.958,8.528 1.799,17.069 2.524,25.62l85.521,53.439c9.079,5.674 14.611,15.653 14.611,26.36c0,10.706 -5.532,20.685 -14.611,26.359l-85.521,53.439c-0.725,8.551 -1.566,17.092 -2.524,25.62l73.453,69.097c6.241,5.871 9.785,14.07 9.785,22.64c0,12.889 -8.017,24.499 -20.07,29.066l-94.304,35.729c-2.379,8.245 -4.87,16.457 -7.473,24.634l58.561,82.099c3.758,5.268 5.778,11.58 5.778,18.05c0,15.123 -11.037,28.16 -25.952,30.656l-99.462,16.645c-3.942,7.623 -7.987,15.191 -12.135,22.703l41.418,91.947c1.808,4.013 2.743,8.365 2.743,12.766c0,17.051 -14.031,31.083 -31.082,31.083c-0.317,-0 -0.633,-0.005 -0.95,-0.015l-100.797,-3.079c-5.354,6.707 -10.798,13.34 -16.332,19.899l22.685,98.261c0.53,2.292 0.797,4.638 0.797,6.991c-0,17.052 -14.031,31.083 -31.083,31.083c-2.353,-0 -4.699,-0.267 -6.992,-0.797l-98.26,-22.685c-6.559,5.534 -13.192,10.978 -19.9,16.331l3.08,100.798c0.01,0.317 0.015,0.633 0.015,0.95c-0,17.051 -14.032,31.082 -31.083,31.082c-4.401,0 -8.753,-0.935 -12.766,-2.742l-91.947,-41.419c-7.512,4.148 -15.081,8.193 -22.703,12.135l-16.644,99.462c-2.496,14.915 -15.534,25.952 -30.657,25.952c-6.47,0 -12.782,-2.02 -18.049,-5.778l-82.1,-58.561c-8.177,2.603 -16.389,5.094 -24.634,7.473l-35.729,94.304c-4.566,12.053 -16.177,20.07 -29.066,20.07c-8.569,0 -16.768,-3.543 -22.64,-9.785l-69.097,-73.453c-8.528,0.958 -17.068,1.799 -25.619,2.524Zm250.603,-217.66l26.243,-165.688c4.801,-30.315 33.697,-51.309 64.012,-46.508l165.688,26.243c155.861,-169.892 230.434,-399.405 204.2,-628.464l-149.469,-76.158c-27.348,-13.934 -38.385,-47.903 -24.451,-75.25l76.159,-149.47c-113.414,-200.733 -308.649,-342.579 -534.603,-388.412l-118.62,118.62c-10.488,10.488 -24.729,16.387 -39.561,16.387c-14.833,-0 -29.074,-5.899 -39.562,-16.387l-118.62,-118.62c-225.954,45.833 -421.189,187.679 -534.602,388.412l76.158,149.47c13.934,27.347 2.897,61.316 -24.45,75.25l-149.47,76.158c-26.234,229.059 48.339,458.572 204.2,628.464l165.689,-26.243c30.314,-4.801 59.21,16.193 64.012,46.508l26.242,165.688c209.741,95.733 451.065,95.733 660.805,0Zm-735.946,-80.129c0,-0.017 0,-0.034 0,-0.051c0,-34.102 -28.062,-62.165 -62.165,-62.165c-34.103,0 -62.165,28.063 -62.165,62.165c-0,0.017 -0,0.034 -0,0.051c0.028,34.084 28.082,62.114 62.165,62.114c34.084,0 62.137,-28.03 62.165,-62.114Zm935.417,0c0,-0.017 0,-0.034 0,-0.051c0,-34.102 -28.062,-62.165 -62.165,-62.165c-34.103,0 -62.165,28.063 -62.165,62.165c0,0.017 0,0.034 0,0.051c0.028,34.084 28.082,62.114 62.165,62.114c34.084,0 62.137,-28.03 62.165,-62.114Zm-1224.48,-889.634c0,-34.103 -28.062,-62.165 -62.165,-62.165c-34.103,-0 -62.165,28.062 -62.165,62.165c0,34.103 28.062,62.165 62.165,62.165c34.103,0 62.165,-28.062 62.165,-62.165Zm1513.54,-0c0,-34.103 -28.062,-62.165 -62.165,-62.165c-34.103,-0 -62.165,28.062 -62.165,62.165c-0,34.103 28.062,62.165 62.165,62.165c34.103,0 62.165,-28.062 62.165,-62.165Zm-756.768,-549.825c-0,-34.103 -28.063,-62.165 -62.165,-62.165c-34.103,0 -62.165,28.062 -62.165,62.165c-0,34.103 28.062,62.165 62.165,62.165c34.102,0 62.165,-28.062 62.165,-62.165Z" style="fill-rule:nonzero;"/><path id="Spotify-waves" serif:id="Spotify waves" d="M1406.57,1393.58c-14.253,23.375 -44.848,30.786 -68.222,16.438c-186.824,-114.116 -422.011,-139.961 -698.987,-76.679c-26.691,6.081 -53.295,-10.642 -59.377,-37.342c-6.109,-26.7 10.547,-53.305 37.304,-59.386c303.106,-69.249 563.102,-39.433 772.844,88.746c23.374,14.348 30.786,44.849 16.438,68.223Zm97.393,-216.66c-17.958,29.19 -56.155,38.407 -85.326,20.448c-213.884,-131.467 -539.918,-169.54 -792.902,-92.747c-32.809,9.911 -67.462,-8.58 -77.42,-41.332c-9.882,-32.81 8.618,-67.397 41.371,-77.374c288.976,-87.682 648.228,-45.209 893.848,105.727c29.171,17.958 38.387,56.155 20.429,85.288l-0,-0.01Zm8.362,-225.61c-256.453,-152.323 -679.566,-166.329 -924.416,-92.015c-39.318,11.924 -80.898,-10.272 -92.813,-49.59c-11.915,-39.338 10.262,-80.889 49.608,-92.842c281.072,-85.326 748.32,-68.841 1043.58,106.439c35.442,20.989 47.034,66.664 26.035,101.983c-20.904,35.365 -66.702,47.024 -101.953,26.025l-0.038,-0Z"/></g></svg>